<?xml version="1.0" standalone="no"?>
<!DOCTYPE svg PUBLIC "-//W3C//DTD SVG 20010904//EN"
 "http://www.w3.org/TR/2001/REC-SVG-20010904/DTD/svg10.dtd">
<svg version="1.0" xmlns="http://www.w3.org/2000/svg"
 width="1024.000000pt" height="1024.000000pt" viewBox="0 0 1024.000000 1024.000000"
 preserveAspectRatio="xMidYMid meet">

<g transform="translate(0.000000,1024.000000) scale(0.100000,-0.100000)"
fill="#000000" stroke="none">
<path d="M0 5120 l0 -5120 5120 0 5120 0 0 5120 0 5120 -5120 0 -5120 0 0
-5120z m5342 4103 c24 -21 23 -58 -3 -84 -33 -33 -89 -4 -89 47 0 48 55 70 92
37z m-18 -135 c3 -13 6 -38 6 -55 0 -27 4 -33 23 -33 32 -1 102 -34 150 -73
42 -34 43 -34 173 -40 428 -20 963 -174 1409 -406 449 -234 844 -540 1149
-890 l86 -98 79 81 c62 62 83 78 92 69 9 -9 -6 -32 -65 -99 -64 -74 -74 -89
-64 -103 7 -9 29 -36 49 -61 66 -82 170 -231 237 -339 74 -120 214 -395 262
-516 148 -371 258 -798 286 -1107 l6 -75 44 -11 c111 -30 183 -159 153 -275
-19 -79 -86 -141 -194 -182 -33 -13 -76 -5 -119 23 -23 14 -47 27 -55 28 -45
8 -100 102 -101 172 l0 42 -70 0 c-52 0 -70 -3 -70 -14 0 -9 -8 -12 -25 -8
-14 2 -32 -1 -40 -8 -13 -10 -15 -9 -15 9 0 20 -4 21 -125 21 l-125 0 0 -27
c0 -62 -74 -134 -135 -132 -29 1 -29 1 5 8 46 9 77 27 90 51 14 26 12 35 -5
20 -8 -6 -41 -14 -75 -17 -48 -5 -64 -2 -79 11 -33 30 -35 -2 -2 -34 16 -17
26 -30 21 -30 -4 0 -22 16 -38 35 l-31 34 -210 4 c-145 2 -215 7 -223 15 -9 9
29 12 168 12 231 0 250 3 258 42 20 102 134 140 221 74 32 -25 40 -26 154 -26
67 0 121 4 121 8 0 47 -35 364 -51 457 -50 296 -150 597 -299 900 -171 348
-342 586 -620 865 -322 322 -544 487 -897 664 -350 175 -714 285 -1148 346
-181 26 -188 26 -237 -10 -23 -17 -61 -36 -85 -42 -32 -8 -43 -15 -43 -29 0
-25 -27 -24 -35 1 -4 12 -21 23 -43 30 -40 10 -93 36 -131 62 -13 10 -27 15
-31 13 -4 -3 -101 -18 -216 -35 -571 -82 -1036 -261 -1509 -581 -221 -149
-394 -301 -591 -517 -155 -169 -386 -497 -475 -674 -183 -363 -288 -665 -348
-993 -25 -140 -51 -366 -51 -446 0 -18 10 -19 124 -19 100 0 126 3 137 16 21
25 65 44 105 44 53 0 114 -62 114 -115 l0 -38 198 6 c108 3 206 2 217 -2 19
-8 19 -8 -2 -19 -28 -15 -389 -17 -398 -2 -11 17 -23 11 -29 -15 -6 -24 -58
-65 -81 -65 -5 0 5 9 23 20 18 11 37 32 42 46 14 35 12 41 -4 19 -19 -26 -112
-33 -154 -11 -39 20 -41 8 -6 -33 29 -35 18 -43 -13 -8 -29 31 -43 61 -43 91
l0 26 -120 0 c-66 0 -128 -4 -138 -9 -9 -5 -25 -12 -34 -15 -29 -9 -21 -40 12
-53 18 -7 30 -7 30 -2 0 6 5 7 10 4 6 -3 10 -40 10 -81 0 -232 65 -592 155
-853 29 -85 28 -81 17 -81 -5 0 -17 16 -28 35 -18 34 -36 48 -30 23 1 -7 1
-10 -1 -5 -3 4 -11 7 -18 7 -34 0 -86 138 -129 345 -29 137 -49 322 -55 500
l-6 180 -73 3 c-49 2 -72 -1 -67 -7 3 -6 1 -36 -4 -67 -11 -60 -51 -124 -77
-124 -8 0 -13 -3 -11 -7 3 -5 -11 -9 -30 -10 -20 -1 -41 -7 -47 -13 -8 -8 -6
-9 7 -5 9 4 17 3 17 -3 0 -5 -9 -12 -20 -15 -12 -3 -21 -14 -21 -29 -2 -21 -2
-22 -6 -2 -4 19 -8 21 -39 14 -18 -4 -34 -5 -34 -1 0 3 -22 14 -50 24 -102 36
-154 109 -154 217 0 108 64 196 162 223 l42 11 0 51 c0 159 87 555 183 840
147 435 337 793 595 1123 39 51 72 97 72 101 0 5 -34 46 -77 91 -58 62 -73 84
-64 93 8 8 30 -8 92 -68 l80 -80 52 55 c29 31 90 98 137 149 216 240 618 550
940 726 242 132 406 204 651 285 329 109 699 180 940 180 74 0 77 1 116 39 39
36 114 71 155 71 15 0 18 8 18 48 0 27 3 52 7 55 13 14 31 6 37 -15z m64 -890
c90 -54 81 -179 -17 -245 -94 -63 -221 10 -221 127 0 119 129 183 238 118z
m-328 -57 c0 -4 -39 -11 -87 -15 -123 -9 -329 -42 -453 -71 -179 -43 -180 -44
-180 -66 0 -28 -26 -75 -45 -83 -40 -15 -87 -6 -116 23 -16 16 -29 37 -29 46
0 29 28 83 48 94 37 20 91 13 118 -14 l25 -25 112 30 c238 62 607 112 607 81z
m677 -6 c167 -21 316 -51 428 -84 l96 -29 30 30 c26 27 35 30 72 25 51 -7 87
-44 87 -89 0 -42 -56 -98 -100 -98 -41 0 -90 47 -90 87 0 28 -2 28 -133 61
-174 43 -390 81 -504 89 -51 3 -93 10 -93 15 0 12 75 10 207 -7z m-1599 -187
c-3 -7 -49 -33 -104 -58 -54 -25 -143 -69 -197 -99 -54 -29 -101 -50 -104 -47
-10 10 5 21 92 68 87 46 295 146 308 147 5 1 7 -4 5 -11z m2433 -34 c104 -39
283 -130 301 -151 22 -27 2 -20 -72 23 -41 24 -131 66 -200 95 -118 48 -158
69 -133 69 6 0 53 -16 104 -36z m-1917 -72 c71 -41 96 -130 54 -192 -27 -40
-79 -70 -124 -70 -46 0 -114 40 -136 80 -38 69 -8 147 73 188 48 24 81 23 133
-6z m1436 6 c62 -31 96 -98 81 -155 -11 -39 -47 -81 -88 -102 -52 -26 -131 -5
-176 48 -55 66 -27 174 56 211 54 25 73 25 127 -2z m-778 -30 c2 -2 5 -376 8
-833 3 -469 9 -817 13 -800 33 119 89 205 197 302 79 72 109 124 122 215 17
126 44 130 36 5 -5 -89 -36 -143 -152 -265 -117 -125 -147 -178 -181 -326 -13
-55 -24 -95 -24 -88 -1 9 -12 12 -32 10 l-32 -3 -17 86 c-28 136 -65 203 -180
321 -127 131 -152 178 -148 279 2 41 8 74 13 74 6 0 13 -30 17 -66 10 -104 37
-151 148 -265 98 -99 160 -195 160 -249 0 -11 5 -27 10 -35 6 -10 10 256 10
760 0 426 3 799 6 828 6 44 15 61 26 50z m-1602 -67 c21 -15 26 -28 28 -73 4
-66 -15 -88 -80 -95 -37 -4 -47 0 -75 26 -40 36 -44 84 -12 125 39 49 87 55
139 17z m3317 4 c11 -8 26 -30 33 -49 25 -78 -48 -151 -126 -126 -44 15 -64
45 -64 96 0 88 80 128 157 79z m1557 -16 c31 -24 33 -52 6 -79 -42 -42 -104
-14 -98 44 2 21 11 35 28 43 33 17 33 16 64 -8z m-6486 -1 c29 -29 1 -98 -40
-98 -37 0 -58 19 -58 53 0 41 15 57 55 57 17 0 36 -5 43 -12z m1442 -108 c0
-5 -27 -27 -59 -49 -32 -22 -65 -46 -72 -53 -8 -7 -30 -25 -49 -39 -19 -14
-52 -38 -72 -53 -21 -16 -38 -24 -38 -19 0 16 267 223 287 223 2 0 3 -4 3 -10z
m3861 -120 c21 -57 24 -82 24 -210 l0 -145 -50 -49 -50 -48 44 31 c25 17 46
29 48 27 10 -9 -13 -35 -62 -71 -30 -22 -55 -41 -55 -43 0 -2 21 8 47 22 91
52 47 1 -52 -58 -72 -43 -62 -48 13 -7 28 16 52 26 52 21 0 -12 -26 -31 -78
-57 -26 -13 -39 -21 -29 -18 11 3 31 7 45 10 27 5 27 5 -2 -9 -18 -8 -24 -15
-16 -18 10 -3 9 -6 -4 -11 -10 -4 -15 -3 -11 3 8 13 -5 13 -25 0 -13 -9 -13
-10 0 -10 14 -1 -9 -14 -110 -65 -39 -19 -225 -83 -285 -98 -11 -3 3 -5 31 -6
69 -1 205 23 337 60 60 17 111 28 114 26 9 -10 -72 -56 -120 -68 -64 -16 -54
-22 12 -8 29 6 54 9 57 6 6 -6 -61 -37 -116 -54 l-45 -13 60 6 c73 7 67 -3
-17 -27 -45 -13 -55 -18 -34 -18 42 -1 24 -13 -42 -27 -31 -7 -45 -13 -31 -13
24 -1 86 15 134 35 17 7 18 6 7 -8 -15 -18 -135 -48 -193 -48 -22 0 -39 -5
-39 -11 0 -8 22 -10 73 -7 39 3 63 2 52 -2 -11 -4 -55 -10 -98 -13 -43 -4 -86
-11 -95 -17 -14 -8 -13 -9 8 -9 14 0 34 4 45 8 11 5 26 6 34 3 19 -7 -59 -29
-128 -37 -31 -4 -69 -8 -86 -11 -23 -4 -26 -3 -15 5 12 8 6 11 -23 11 -38 0
-39 0 -32 33 4 17 18 57 30 87 13 30 22 57 20 59 -14 14 -327 -284 -1017 -967
l-377 -374 -24 19 -25 18 226 229 c125 126 391 389 592 585 508 495 920 904
915 909 -2 2 -77 -61 -167 -141 -90 -79 -212 -188 -272 -241 -59 -52 -113 -93
-119 -89 -5 3 -7 1 -4 -4 7 -12 -16 -36 -26 -27 -3 3 -8 -3 -11 -14 -4 -11
-14 -23 -22 -26 -8 -3 -12 -2 -9 4 3 6 1 10 -4 10 -6 0 -11 -9 -11 -20 0 -25
-17 -26 -23 -2 -3 11 -5 9 -6 -8 -1 -14 -6 -32 -11 -40 -8 -12 -10 -10 -11 10
-1 16 -4 11 -8 -15 l-7 -40 -8 59 c-9 58 -1 281 10 310 3 8 76 51 162 96 406
213 528 289 645 405 111 109 197 252 197 328 0 19 3 17 24 -13 13 -19 34 -64
47 -100z m-1589 -14 c-107 -111 -122 -147 -122 -291 0 -72 -3 -92 -14 -92 -21
0 -31 120 -16 194 22 105 59 162 168 255 102 88 92 45 -16 -66z m1374 57 c-5
-5 -86 54 -86 63 0 3 21 -9 46 -26 25 -18 43 -34 40 -37z m-2347 -48 c68 -71
95 -119 112 -201 14 -70 5 -194 -15 -194 -9 0 -15 31 -19 111 -7 141 -29 189
-132 293 -41 40 -71 76 -68 79 11 11 63 -27 122 -88z m-886 21 c50 -21 79 -59
84 -110 7 -55 -9 -98 -49 -131 -61 -52 -142 -41 -203 27 -35 38 -37 44 -33 94
3 39 11 61 29 80 46 51 111 66 172 40z m2827 -4 c75 -37 100 -121 57 -197 -69
-123 -255 -86 -274 55 -8 56 17 103 71 135 48 29 98 32 146 7z m-3506 -142
c60 -53 71 -136 25 -194 -86 -110 -269 -43 -256 93 8 78 71 131 154 131 33 0
50 -7 77 -30z m1313 -32 c51 -47 12 -138 -58 -138 -70 0 -106 85 -57 137 28
30 83 31 115 1z m1553 -3 c59 -63 -8 -162 -90 -134 -36 13 -50 35 -50 80 0 73
90 107 140 54z m1574 -285 c34 -41 72 -90 85 -107 42 -61 13 -33 -56 55 -39
48 -101 121 -138 162 -66 73 -67 73 -11 20 32 -30 86 -89 120 -130z m-4730 96
c-22 -24 -66 -75 -99 -113 -33 -38 -73 -84 -88 -103 -15 -19 -23 -25 -17 -13
26 55 227 289 238 278 3 -2 -13 -24 -34 -49z m1559 -173 c3 -92 12 -181 21
-213 39 -141 217 -413 278 -426 81 -18 104 -121 39 -171 -20 -15 -76 -17 -102
-3 -27 15 -52 68 -47 101 6 36 6 36 -223 154 -155 80 -179 90 -195 78 -42 -30
-114 1 -114 50 0 17 -13 27 -58 47 -57 24 -165 119 -191 168 -19 36 14 41 41
6 41 -54 103 -109 156 -137 49 -27 55 -28 71 -13 46 42 138 -4 129 -65 -3 -20
0 -29 9 -29 19 0 244 -108 330 -158 39 -23 74 -42 77 -42 14 0 1 23 -74 123
-88 119 -142 221 -165 312 -15 61 -22 355 -8 368 17 18 21 -4 26 -150z m1557
14 c0 -134 -2 -146 -26 -195 -24 -49 -74 -102 -95 -102 -6 0 -2 12 9 28 11 15
32 52 47 82 26 50 29 67 33 193 4 107 8 137 18 137 11 0 14 -28 14 -143z
m-2770 76 c18 -20 39 -51 46 -70 10 -23 21 -33 36 -33 32 0 68 -38 68 -73 0
-34 -48 -87 -80 -87 -30 0 -80 53 -80 85 0 14 11 37 25 51 l26 26 -46 63 c-25
35 -45 66 -45 69 0 15 21 2 50 -31z m1703 -23 c64 -71 7 -180 -94 -180 -57 0
-109 50 -109 107 0 50 31 101 67 109 15 3 33 7 38 8 23 6 72 -16 98 -44z m672
40 c120 -46 86 -224 -43 -222 -75 1 -121 55 -109 129 12 75 84 119 152 93z
m-1750 -145 c68 -67 -18 -175 -104 -130 -33 17 -47 50 -37 90 17 65 94 87 141
40z m-1160 -75 c40 -44 6 -110 -56 -110 -30 0 -59 31 -59 63 0 26 45 67 73 67
13 0 32 -9 42 -20z m5095 0 c22 -22 26 -51 10 -81 -8 -14 -18 -18 -38 -13 -15
3 -37 7 -49 10 -30 6 -37 37 -18 74 19 36 64 41 95 10z m-4615 -57 c-110 -147
-150 -204 -182 -260 -39 -70 -49 -81 -28 -29 32 75 108 192 187 287 59 71 76
73 23 2z m-654 -155 c-33 -56 -61 -108 -61 -115 0 -7 -5 -13 -11 -13 -6 0 -9
3 -7 8 2 4 13 28 25 53 25 55 105 180 111 174 3 -2 -23 -50 -57 -107z m5343
60 l19 -33 -32 29 c-17 17 -31 36 -31 44 0 20 20 2 44 -40z m-1735 -18 c-4
-30 -8 -125 -8 -210 -1 -104 -4 -150 -11 -140 -8 12 -10 11 -10 -6 0 -23 -25
-51 -32 -37 -3 4 -4 3 -2 -4 1 -6 -6 -19 -17 -29 -19 -17 -20 -17 -13 2 5 15
4 16 -4 4 -6 -8 -9 -17 -7 -21 4 -6 -88 -99 -99 -99 -2 0 -6 6 -9 13 -2 6 -3
4 -2 -5 2 -10 -13 -34 -33 -53 -36 -35 -37 -35 -43 -13 -5 20 -7 18 -14 -15
-4 -20 -11 -39 -15 -42 -4 -2 -5 7 -2 20 2 15 0 25 -7 25 -6 0 -11 -17 -11
-40 0 -22 -5 -40 -11 -40 -5 0 -7 4 -4 10 3 5 1 18 -4 27 -9 15 -10 13 -11
-12 0 -39 -20 -72 -20 -35 0 14 -5 32 -10 40 -7 11 -10 -1 -10 -40 0 -39 -3
-51 -10 -40 -5 8 -10 29 -11 45 0 17 -3 23 -6 15 -15 -46 -15 -46 -23 -25 -6
14 -9 5 -9 -33 -1 -57 -19 -69 -32 -21 -5 16 -7 5 -8 -34 -2 -91 -18 -58 -25
50 -8 110 7 220 44 316 56 148 210 315 391 424 56 34 104 61 105 60 1 -1 -2
-27 -7 -57z m-2501 -147 c61 -45 77 -134 34 -192 -69 -93 -176 -92 -246 2 -27
37 -27 108 1 145 38 51 83 74 136 69 27 -2 61 -13 75 -24z m-1170 -39 c30 -21
30 -77 0 -98 -31 -22 -64 -20 -88 4 -28 28 -25 64 6 89 32 25 52 26 82 5z
m5562 -4 c36 -36 20 -84 -33 -103 -19 -7 -56 8 -69 27 -12 18 -9 50 8 74 19
28 67 29 94 2z m-1010 -83 c0 -12 -38 -45 -44 -39 -4 4 -7 3 -6 -3 5 -22 -1
-34 -20 -40 -11 -4 -18 -11 -15 -16 7 -10 -39 -59 -55 -59 -6 0 -10 -7 -8 -16
2 -10 -10 -23 -28 -33 -17 -9 -29 -22 -27 -28 3 -7 -10 -22 -29 -33 -18 -11
-27 -20 -20 -20 6 0 12 -4 12 -10 0 -18 -47 -40 -111 -53 l-64 -12 55 -5 c51
-5 53 -6 33 -18 -14 -8 -64 -13 -135 -14 -119 -1 -109 -9 27 -23 115 -12 43
-28 -100 -22 -131 5 -129 -4 7 -23 48 -7 85 -17 82 -21 -8 -13 -106 -10 -223
6 -57 8 -106 13 -108 11 -5 -4 102 -29 172 -41 22 -3 51 -13 65 -20 24 -14 24
-14 -20 -14 -44 0 -160 13 -217 24 -60 12 18 -15 91 -31 112 -25 107 -37 -14
-30 -108 6 -116 -2 -22 -24 28 -6 52 -16 52 -21 0 -17 -115 -6 -223 22 -37 10
-38 12 -36 47 3 47 10 61 57 114 163 191 271 332 259 340 -18 11 3 15 173 33
85 9 216 29 290 44 74 15 138 29 143 30 4 0 7 -1 7 -2z m484 -77 c14 -5 32
-20 41 -34 31 -47 -9 -119 -72 -132 -45 -9 -83 30 -83 83 1 41 13 62 45 81 25
14 37 15 69 2z m-4498 -24 c39 -33 39 -89 1 -122 -21 -18 -36 -22 -67 -19 -51
5 -59 10 -76 51 -19 44 -18 48 12 83 33 40 89 43 130 7z m-647 -30 c-6 -21
-13 -36 -16 -33 -3 3 0 22 7 42 16 47 23 40 9 -9z m1425 -76 c55 -33 103 -60
108 -60 4 0 8 7 8 15 0 27 78 93 119 100 111 19 225 -111 178 -202 -20 -37
-66 -83 -95 -94 -30 -12 -84 -11 -115 0 -40 16 -87 70 -93 109 -5 34 -13 41
-85 81 -85 47 -164 110 -139 110 8 1 60 -26 114 -59z m1143 -95 c110 -88 170
-164 188 -237 11 -44 -18 -35 -45 15 -43 78 -88 132 -169 202 -45 38 -81 73
-81 77 0 20 33 3 107 -57z m-2507 -27 c82 -43 110 -119 71 -196 -56 -110 -185
-126 -264 -32 -28 33 -43 86 -33 123 9 39 49 89 86 108 46 25 86 24 140 -3z
m628 -166 c41 -62 114 -121 195 -157 57 -25 57 -25 77 -5 30 30 100 27 139 -6
17 -14 31 -34 31 -43 0 -17 29 -18 438 -24 432 -6 438 -6 525 -31 174 -52 330
-150 393 -248 13 -21 24 -40 24 -44 0 -3 -28 20 -62 51 -112 102 -215 164
-343 206 -68 22 -81 23 -522 27 l-452 3 -15 -24 c-18 -26 -56 -47 -87 -47 -51
0 -101 51 -101 103 0 20 -12 30 -67 57 -36 17 -87 48 -114 67 -91 67 -170 211
-152 279 7 27 9 25 32 -41 14 -38 41 -94 61 -123z m5101 155 c49 -33 75 -86
68 -143 -13 -123 -165 -181 -257 -98 -68 61 -75 147 -18 219 47 60 136 69 207
22z m-689 -27 c0 -33 -40 -115 -79 -165 -63 -78 -222 -179 -245 -155 -8 9 -8
14 0 17 26 9 131 77 170 108 55 45 101 116 122 187 16 56 32 60 32 8z m-1943
-146 c1 -103 -1 -183 -5 -180 -4 4 -13 26 -19 49 l-13 42 5 -55 c3 -30 1 -62
-5 -70 -6 -10 -10 -11 -10 -2 0 24 -18 11 -23 -18 -8 -38 -24 -39 -30 -2 -3
22 -4 21 -6 -9 -1 -45 -27 -73 -34 -37 -3 17 -6 12 -12 -19 -8 -48 -12 -51
-31 -25 -12 15 -13 14 -14 -15 0 -42 -16 -50 -28 -16 -10 27 -10 27 -11 -12
-1 -27 -4 -35 -10 -26 -7 11 -10 10 -18 -4 -5 -9 -14 -15 -19 -13 -5 1 -11
-17 -14 -42 -6 -42 -6 -40 -14 35 -21 191 47 378 186 511 50 48 107 93 118 94
3 0 6 -84 7 -186z m-1121 90 c121 -55 173 -74 191 -69 18 4 23 3 17 -7 -4 -7
2 -4 14 6 33 29 80 25 109 -8 12 -15 23 -33 23 -41 0 -29 -24 -64 -50 -75 -39
-16 -88 10 -96 49 -5 21 -13 30 -33 34 -48 10 -351 160 -351 174 0 7 2 13 4
13 3 0 80 -34 172 -76z m476 -241 c81 -66 143 -146 163 -210 12 -41 -12 -24
-63 45 -53 71 -119 137 -189 191 -27 21 -40 37 -36 47 7 18 26 7 125 -73z
m-2253 -66 c100 -102 104 -105 141 -100 48 7 106 -20 126 -59 17 -33 15 -92
-3 -94 -7 -1 -14 -2 -15 -4 -14 -11 -126 -26 -140 -18 -18 9 -24 0 -10 -18 4
-5 -5 3 -20 18 -33 33 -38 90 -12 126 16 23 14 26 -93 133 -59 60 -110 117
-111 125 -6 28 28 0 137 -109z m5316 113 c3 -5 -48 -65 -114 -132 l-119 -123
15 -29 c12 -23 13 -36 4 -66 -6 -21 -18 -44 -27 -51 -15 -12 -16 -11 -9 11 7
22 6 23 -7 12 -9 -7 -44 -13 -79 -14 -60 -2 -64 0 -81 28 -22 36 -22 47 -2 90
26 54 95 80 143 55 14 -8 39 11 137 110 65 65 122 119 126 119 4 0 10 -4 13
-10z m-1730 -26 c73 -21 76 -24 15 -18 -30 4 -57 9 -60 13 -3 4 -16 12 -30 19
l-25 13 25 -7 c14 -3 48 -12 75 -20z m906 -32 c20 -22 25 -36 21 -61 -6 -44
-22 -49 -22 -7 0 31 -4 37 -27 42 -16 4 -32 10 -38 13 -5 3 -17 6 -25 7 -43 3
-50 5 -50 12 0 17 45 32 80 27 22 -3 45 -15 61 -33z m-51 -32 c28 -22 15 -26
-24 -9 -14 7 -23 16 -20 20 8 13 16 11 44 -11z m-1105 -34 c61 -19 147 -45
193 -57 46 -12 80 -25 75 -30 -4 -4 -33 -9 -63 -11 -51 -4 -53 -5 -22 -12 51
-13 37 -26 -30 -27 -59 -1 -61 -1 -28 -11 70 -19 59 -31 -25 -25 l-80 6 47
-17 c26 -9 50 -20 54 -24 10 -11 -80 -9 -136 2 -68 13 -60 5 22 -21 l73 -24
-48 -3 c-26 -2 -73 4 -104 13 -69 20 -81 13 -16 -10 93 -33 92 -32 53 -39 -20
-4 -65 -1 -104 7 -58 12 -66 12 -51 1 10 -8 26 -14 34 -15 9 0 34 -7 56 -15
38 -13 36 -13 -60 -10 -96 4 -98 1 -15 -21 l35 -10 -47 -8 c-71 -11 -135 1
-141 27 -8 28 3 79 19 99 8 9 12 18 9 21 -3 2 17 29 45 59 27 30 50 60 50 67
0 6 4 12 9 12 12 0 66 92 63 107 -2 7 3 11 10 9 7 -3 63 -20 123 -40z m965 -4
c0 -4 -21 -6 -47 -4 -83 5 -90 9 -20 11 37 0 67 -2 67 -7z m-4710 -152 c24
-24 25 -48 4 -78 -20 -30 -88 -31 -104 -3 -37 70 45 136 100 81z m6068 4 c14
-9 22 -26 22 -43 0 -30 -21 -56 -34 -43 -4 4 -6 0 -4 -8 2 -10 -6 -16 -24 -18
-50 -6 -77 69 -38 108 24 24 48 25 78 4z m-4089 -90 c117 -17 275 -66 372
-114 61 -31 202 -121 247 -157 l23 -19 -90 -74 c-49 -41 -92 -85 -95 -98 -6
-22 -9 -21 -109 32 -288 153 -596 203 -956 157 -91 -12 -170 -26 -178 -32 -7
-6 -13 -21 -13 -32 0 -23 15 -22 235 8 90 13 158 16 275 11 135 -5 171 -10
280 -40 190 -52 342 -115 419 -175 l23 -18 -26 -51 -26 -52 -91 45 c-109 55
-229 96 -369 126 -137 30 -426 33 -595 6 -60 -9 -125 -19 -143 -22 -41 -5 -62
-21 -62 -46 0 -17 11 -24 33 -20 4 1 65 11 135 23 175 30 484 32 617 4 168
-35 444 -144 429 -169 -4 -6 -21 -29 -38 -50 -35 -44 -24 -45 -186 12 -283 98
-523 113 -910 55 -58 -8 -116 -18 -129 -22 -32 -9 -50 -37 -33 -54 9 -9 40 -7
145 10 227 38 314 45 472 38 166 -7 261 -24 430 -81 151 -51 149 -49 130 -84
-8 -16 -26 -42 -40 -59 l-26 -31 -82 28 c-285 97 -591 106 -996 32 -98 -18
-120 -29 -121 -59 0 -23 29 -24 133 -3 271 54 577 65 767 26 88 -18 252 -64
263 -75 4 -4 -14 -31 -40 -60 l-47 -53 69 9 c39 5 111 9 160 9 81 -1 96 -4
150 -32 105 -54 247 -153 301 -209 28 -30 60 -54 70 -55 14 -1 13 -3 -5 -8
-14 -4 -27 -13 -29 -20 -3 -8 0 -11 7 -7 7 5 9 1 5 -9 -4 -9 2 -25 12 -37 19
-21 19 -21 -6 -8 -23 12 -24 12 -11 -3 7 -10 20 -17 28 -17 8 0 11 -4 8 -10
-3 -5 -1 -10 5 -10 7 0 10 -7 6 -15 -3 -8 0 -14 7 -12 7 1 11 -9 10 -26 -1
-15 2 -25 7 -22 5 3 12 0 16 -6 4 -8 3 -9 -4 -5 -7 4 -12 2 -12 -4 0 -6 -4 -8
-10 -5 -5 3 -10 -1 -10 -10 0 -9 4 -13 10 -10 6 3 7 -1 4 -9 -3 -9 -1 -16 5
-16 6 0 10 -5 9 -12 -2 -7 2 -12 9 -13 6 0 15 -4 20 -9 5 -5 3 -6 -4 -2 -19
11 -16 -1 12 -41 13 -20 22 -39 19 -42 -2 -3 -30 20 -61 50 -62 59 -55 45 21
-43 27 -31 50 -66 51 -78 2 -18 -4 -16 -36 16 -21 21 -35 42 -32 47 3 6 1 7
-5 3 -6 -3 -13 -2 -17 3 -3 6 -20 20 -38 33 l-32 22 40 -49 c21 -28 44 -53 50
-57 5 -4 10 -13 10 -20 1 -7 7 -12 14 -10 7 1 10 -2 6 -7 -3 -6 2 -23 11 -38
13 -23 9 -21 -21 10 -20 21 -55 55 -76 75 -38 33 -39 34 -28 9 7 -15 17 -27
22 -27 6 0 7 -3 4 -6 -3 -4 12 -27 34 -53 23 -25 45 -54 50 -63 8 -15 6 -15
-21 -1 -17 8 -30 17 -30 19 0 3 6 2 13 -2 8 -5 7 -2 -2 9 -8 10 -16 15 -19 12
-3 -3 -26 14 -51 37 l-45 43 48 -54 c118 -135 108 -150 -23 -34 -165 148 -397
288 -602 364 -42 15 -86 25 -98 22 -16 -4 4 -16 81 -47 57 -23 117 -50 133
-60 37 -21 27 -18 -110 37 -224 90 -411 126 -700 136 -115 4 -181 8 -145 9 64
2 65 2 36 17 -23 12 -46 13 -140 5 -61 -5 -147 -16 -191 -24 -148 -27 -290
-55 -365 -71 -84 -18 -359 -49 -367 -41 -3 2 27 74 65 158 112 242 380 832
570 1251 l75 167 133 0 c74 0 180 7 236 15 191 27 253 32 407 34 94 0 195 -5
260 -15z m2691 -13 c85 -11 207 -21 271 -21 l115 0 31 -77 c56 -139 128 -301
297 -671 91 -200 188 -416 215 -480 27 -64 72 -166 100 -226 28 -59 51 -111
51 -115 0 -18 -248 12 -477 58 -275 56 -467 82 -588 79 l-80 -1 105 -8 c91 -6
128 -11 150 -19 3 -1 9 -2 14 -1 5 1 30 -3 55 -8 25 -6 127 -27 226 -47 99
-20 187 -40 195 -45 17 -11 30 -13 -195 36 -88 19 -214 39 -280 46 -149 14
-481 6 -590 -14 -113 -22 -243 -53 -294 -71 -24 -9 -46 -16 -50 -16 -15 1 27
21 64 31 33 9 37 12 21 21 -22 12 -155 -32 -291 -96 -188 -89 -434 -274 -528
-396 -33 -43 -24 -9 9 36 13 17 20 34 17 38 -4 3 0 6 7 6 7 0 11 3 8 6 -4 3
11 21 33 41 21 19 36 40 33 45 -3 5 -19 -2 -34 -17 -41 -39 -48 -13 -10 38
l32 42 -41 -45 c-37 -41 -54 -69 -33 -56 18 11 7 -25 -12 -41 -12 -10 -15 -11
-8 -3 6 8 12 20 12 28 0 12 -3 12 -16 2 -8 -8 -14 -9 -13 -4 3 20 -2 26 -14
16 -10 -8 -13 -6 -13 8 0 11 2 17 5 15 6 -7 31 15 31 27 0 5 -4 6 -10 3 -5 -3
-10 -2 -10 4 0 5 5 13 10 16 6 3 10 1 10 -5 0 -6 5 -8 11 -5 6 4 8 14 5 22 -3
8 -2 12 3 9 5 -3 14 0 20 8 9 10 6 13 -15 12 -14 -1 -35 -14 -50 -31 l-25 -30
15 31 c8 17 33 55 56 85 l41 54 -46 -49 c-70 -75 -71 -43 -2 49 27 35 28 37 5
17 l-25 -23 -5 25 c-3 14 1 35 9 46 8 11 11 20 7 20 -3 0 -1 7 6 16 8 8 9 14
4 13 -5 -1 -16 -1 -24 0 -13 1 -13 3 -1 10 8 5 16 23 17 39 1 16 7 39 14 52 7
12 8 20 3 17 -5 -4 -10 0 -10 8 0 8 4 12 8 10 4 -3 10 2 13 11 3 8 2 12 -4 9
-6 -3 -10 -1 -10 4 0 6 6 11 13 11 8 0 7 4 -3 11 -12 8 -11 9 5 5 15 -4 34 9
77 53 232 237 728 421 1133 421 131 0 317 -20 478 -51 111 -22 137 -21 137 5
0 30 -47 45 -220 71 -231 35 -475 43 -620 22 -297 -45 -621 -168 -807 -307
-25 -19 -63 -46 -82 -59 -33 -22 -34 -22 -17 -3 16 19 17 24 5 39 -9 11 -10
14 -1 9 6 -4 12 -2 12 3 0 6 -4 11 -9 11 -5 0 -8 8 -6 18 1 9 -3 23 -9 31 -8
10 -3 20 24 43 144 121 429 260 660 322 245 65 475 71 787 20 137 -22 175 -26
185 -16 38 38 -44 63 -327 96 -153 19 -252 20 -401 5 -216 -22 -519 -119 -726
-233 -53 -29 -94 -47 -91 -40 3 8 10 14 15 14 6 0 6 6 -1 14 -9 11 -9 15 1 18
11 4 11 8 0 20 -9 12 -10 18 -2 23 8 5 7 11 -2 23 -11 13 -10 15 4 9 11 -4 17
-2 15 4 -4 18 200 125 339 178 71 27 186 64 255 83 121 32 128 32 339 33 180
0 236 -4 348 -23 136 -24 162 -24 162 1 0 27 -27 37 -171 58 -192 29 -491 32
-624 6 -112 -22 -283 -75 -412 -127 -54 -22 -89 -33 -79 -25 11 8 25 15 30 15
6 0 -3 11 -20 25 -59 46 -53 58 51 104 301 133 578 186 848 163 78 -7 171 -18
207 -26 36 -7 70 -11 77 -9 17 7 17 38 0 52 -40 33 -470 63 -604 42 -97 -16
-248 -53 -369 -92 -50 -16 -100 -27 -110 -23 -13 4 -15 3 -6 -3 9 -7 1 -14
-29 -26 -48 -19 -66 -16 -19 3 28 12 41 30 21 30 -4 0 -6 10 -4 23 3 16 -5 29
-30 49 -40 32 -95 50 -82 27 6 -11 5 -12 -5 -2 -8 7 -12 14 -9 16 2 1 42 20
88 42 97 46 213 119 285 179 63 52 89 55 376 51 147 -2 264 -9 370 -24z
m-1663 -133 c51 -51 93 -97 93 -102 0 -5 -9 -1 -19 8 -11 10 -24 15 -29 12
-12 -7 -176 138 -180 159 -2 10 5 15 20 15 15 0 52 -29 115 -92z m-98 -24 c39
-49 5 -59 -49 -15 -29 25 -32 31 -21 45 16 19 39 9 70 -30z m578 20 c-3 -3
-12 -4 -19 -1 -8 3 -5 6 6 6 11 1 17 -2 13 -5z m-40 -20 c-3 -3 -12 -4 -19 -1
-8 3 -5 6 6 6 11 1 17 -2 13 -5z m-621 -60 l17 -26 -70 -70 -70 -70 -29 25
-28 25 74 70 c41 39 78 71 82 72 4 0 15 -12 24 -26z m-4048 -60 c30 -21 29
-62 -2 -74 -58 -22 -102 34 -56 72 27 22 30 22 58 2z m2020 4 c-3 -7 -31 -17
-64 -21 l-59 -8 -50 -86 c-27 -47 -63 -97 -80 -110 -16 -14 -30 -29 -30 -32 0
-3 -3 -5 -7 -4 -5 2 -7 -1 -5 -6 1 -5 -15 -27 -35 -49 -21 -22 -38 -46 -38
-53 0 -7 -3 -9 -7 -6 -8 8 -73 -81 -149 -203 -31 -49 -58 -90 -60 -90 -7 0 11
31 144 250 69 113 155 256 191 317 l66 113 93 0 c71 0 93 -3 90 -12z m4671
-164 c267 -431 337 -552 201 -349 -29 43 -73 100 -97 125 -24 25 -57 68 -73
95 -16 28 -40 61 -54 74 -14 14 -44 53 -67 88 -23 34 -45 63 -50 63 -4 0 -11
9 -14 20 -5 16 -15 20 -49 20 -30 0 -48 6 -61 20 l-19 21 88 -3 88 -3 107
-171z m1801 152 c15 -20 9 -56 -12 -70 -25 -16 -72 4 -76 32 -5 31 15 52 48
52 15 0 33 -7 40 -14z m-808 -86 c28 0 28 -1 28 -63 0 -85 -26 -351 -45 -458
-18 -106 -96 -368 -119 -404 -12 -19 -24 -25 -37 -22 -15 4 -23 -5 -40 -44
-32 -74 -41 -49 -13 39 89 280 137 527 155 787 12 180 14 194 31 177 7 -7 25
-12 40 -12z m-5719 -19 c-12 -10 -25 -30 -29 -45 -3 -14 -10 -26 -16 -26 -5 0
-8 -6 -7 -12 4 -21 -23 -68 -38 -68 -11 0 -11 5 1 28 8 16 26 54 40 85 20 46
29 57 48 57 l23 -1 -22 -18z m1892 -8 l27 -28 -33 -28 c-19 -15 -39 -25 -46
-23 -8 3 -10 -1 -6 -12 3 -10 -8 -4 -28 15 l-33 32 39 35 c22 19 43 35 46 36
4 0 19 -12 34 -27z m2639 11 c6 -15 4 -15 -11 -3 -10 7 -20 15 -22 16 -2 2 3
3 11 3 9 0 19 -7 22 -16z m-5883 -166 c11 -133 52 -403 81 -538 25 -120 110
-402 143 -476 29 -66 30 -71 10 -54 -13 10 -15 9 -15 -11 0 -19 -2 -21 -10 -9
-8 13 -10 13 -10 -1 0 -9 -7 -22 -16 -30 -13 -10 -17 -10 -25 2 -6 10 -9 10
-9 2 0 -7 -9 -13 -19 -13 -11 0 -21 -6 -24 -12 -15 -40 -139 340 -187 568 -30
146 -70 419 -70 481 0 27 8 44 38 73 20 21 51 60 67 88 17 28 32 49 33 47 2
-2 8 -54 13 -117z m7241 95 c9 -10 23 -33 32 -51 10 -18 33 -51 53 -73 l35
-39 -17 -143 c-32 -276 -79 -497 -154 -725 -57 -176 -88 -242 -111 -242 -14 0
-54 37 -104 97 -18 21 -17 24 22 125 106 274 165 534 199 881 10 103 20 187
24 187 3 0 13 -8 21 -17z m-4096 -85 c11 -13 19 -30 19 -39 0 -8 -30 -48 -65
-88 -36 -41 -65 -78 -65 -85 0 -6 -7 -10 -16 -8 -9 1 -24 -8 -35 -20 l-19 -23
25 20 c16 13 20 14 12 4 -17 -23 -168 -147 -158 -130 5 7 45 65 90 129 45 65
102 150 125 190 24 39 49 72 55 72 7 0 21 -10 32 -22z m-1882 -17 c3 -5 -3
-20 -14 -32 l-19 -24 -1 23 c0 12 5 22 11 22 5 0 7 5 4 10 -3 6 -2 10 4 10 5
0 12 -4 15 -9z m-34 -80 c0 -9 -4 -21 -9 -26 -5 -6 -14 -27 -21 -47 -6 -21
-15 -40 -20 -43 -10 -6 7 49 27 88 8 15 12 35 9 43 -3 9 -1 12 4 9 6 -3 10
-14 10 -24z m-1416 -123 c49 -379 173 -851 287 -1093 50 -107 50 -105 35 -99
-18 7 -64 95 -106 203 -19 47 -36 79 -38 73 -4 -14 -38 -16 -47 -3 -3 5 0 13
6 17 8 4 9 3 5 -4 -4 -7 -2 -12 3 -12 18 0 13 14 -18 57 -16 22 -30 51 -30 64
-3 66 -7 87 -13 82 -5 -2 -8 5 -8 16 0 12 -4 21 -10 21 -5 0 -10 5 -10 11 0 5
5 7 11 4 6 -4 5 2 -2 14 -9 14 -16 17 -21 8 -4 -6 -9 -9 -11 -7 -16 17 -90
365 -117 553 -26 181 -26 187 5 187 14 0 29 8 35 20 6 11 14 20 19 20 4 0 16
-60 25 -132z m7658 91 c20 -11 20 -17 14 -108 -3 -53 -24 -181 -46 -286 -22
-104 -41 -199 -43 -210 -11 -60 -21 -90 -33 -103 -8 -7 -14 -21 -14 -30 0 -22
-35 -74 -43 -65 -4 3 -7 16 -8 27 0 12 -20 -35 -43 -104 -74 -213 -164 -416
-179 -401 -6 6 8 51 41 128 139 322 233 684 282 1087 13 103 16 112 36 91 9
-8 25 -20 36 -26z m-6849 -51 c17 -22 19 -33 11 -54 -8 -23 -15 -27 -54 -28
-55 -2 -70 8 -70 45 0 66 74 90 113 37z m5425 -41 c8 -9 12 -20 9 -24 -8 -7
-6 -10 -35 43 -12 23 -22 46 -22 50 1 5 8 -4 17 -21 8 -16 22 -38 31 -48z
m622 53 c33 -33 23 -110 -14 -110 -6 0 -4 5 4 10 13 9 13 10 0 9 -8 0 -24 -4
-35 -9 -49 -19 -78 73 -33 104 30 21 54 20 78 -4z m-3472 -79 c20 -11 50 -33
66 -49 28 -30 28 -31 5 -26 -13 2 -18 1 -11 -2 10 -5 9 -10 -5 -21 -10 -8 -13
-12 -7 -9 5 2 10 -6 10 -19 0 -19 -3 -22 -13 -13 -8 6 -16 8 -20 5 -3 -3 -24
6 -47 22 -22 15 -56 36 -73 45 -18 9 -33 21 -33 26 0 7 77 60 88 60 1 0 19 -9
40 -19z m2915 -100 c25 -49 43 -91 40 -95 -4 -3 -1 -6 6 -6 9 0 451 -879 451
-897 0 -1 -9 -3 -20 -3 -11 0 -20 5 -20 11 0 5 5 7 10 4 12 -7 13 5 2 21 -5 7
-119 13 -347 18 -187 4 -419 11 -515 15 -110 5 -199 5 -240 -2 -37 -5 -166 -7
-300 -5 -294 7 -435 -9 -570 -62 -28 -11 -60 -20 -72 -20 -58 0 -283 -103
-419 -192 -109 -71 -234 -176 -265 -222 -14 -20 -27 -36 -30 -36 -8 0 35 60
80 110 199 225 542 389 951 456 153 25 549 29 945 10 567 -27 700 -30 700 -18
0 6 -5 14 -10 17 -20 13 -149 283 -261 550 -33 77 -63 149 -68 160 -5 11 -17
40 -26 65 -9 25 -21 50 -27 57 -5 7 -7 17 -3 23 3 5 -1 17 -9 26 -9 9 -14 20
-11 25 4 5 2 9 -3 9 -5 0 -13 16 -19 35 -19 60 2 38 50 -54z m-5520 72 c-7 -2
-19 -2 -25 0 -7 3 -2 5 12 5 14 0 19 -2 13 -5z m554 -20 c-16 -16 -17 -16 -17
0 0 10 5 15 10 12 6 -3 10 -1 10 6 0 7 3 9 7 5 4 -3 -1 -14 -10 -23z m-66
-138 c-33 -63 -67 -134 -76 -158 -20 -50 -30 -73 -84 -191 -44 -96 -49 -110
-26 -80 29 39 13 0 -82 -193 -54 -109 -100 -202 -102 -207 -4 -9 141 -5 719
20 452 20 785 15 955 -15 282 -50 547 -150 714 -268 99 -71 226 -198 283 -282
27 -42 52 -78 53 -80 2 -2 16 6 32 16 71 50 189 58 266 20 27 -14 51 -20 57
-15 5 4 3 0 -5 -9 -14 -17 -59 -27 -49 -11 5 7 -1 9 -38 12 -7 1 -16 5 -20 11
-4 5 -38 9 -76 9 -61 0 -77 -4 -119 -30 l-49 -31 -52 82 c-28 45 -80 110 -114
145 -73 73 -196 162 -211 153 -6 -4 -7 -1 -2 7 5 8 3 11 -6 8 -18 -7 -51 10
-44 22 4 6 -1 7 -11 3 -11 -4 -15 -2 -11 4 4 6 0 14 -9 17 -8 3 -12 2 -9 -4 3
-6 -1 -7 -9 -4 -9 3 -13 11 -9 17 4 6 0 8 -11 4 -11 -5 -15 -3 -10 5 5 8 2 9
-10 5 -11 -5 -15 -3 -10 5 5 8 1 9 -12 4 -10 -4 -15 -4 -11 0 12 12 -98 52
-258 94 -287 74 -299 75 -780 73 -427 -1 -1052 -19 -1172 -32 -35 -4 -63 -7
-63 -6 0 1 46 94 103 206 57 112 156 317 222 454 65 138 128 261 139 274 12
13 15 21 8 17 -11 -7 -11 -4 0 13 7 12 14 17 16 11 2 -5 8 -10 13 -10 6 0 8 4
5 9 -5 8 0 13 21 20 1 1 -24 -51 -56 -114z m1972 79 c18 -9 52 -31 77 -47 l44
-31 -124 -22 c-177 -30 -237 -37 -225 -25 37 36 172 141 183 141 7 0 27 -7 45
-16z m-2385 -190 l22 -15 -21 -30 c-26 -37 -48 -47 -61 -28 -7 11 -11 11 -15
1 -2 -6 -9 -10 -14 -6 -5 3 -9 -1 -9 -8 0 -23 -20 15 -20 39 0 26 44 63 74 63
12 0 32 -7 44 -16z m5960 -6 c7 -6 12 -25 10 -42 -4 -38 -28 -45 -64 -17 -15
11 -30 19 -34 16 -12 -7 -30 19 -22 31 21 33 77 38 110 12z m-3502 -38 c60
-42 55 -47 -8 -8 -65 39 -64 38 -49 38 7 0 32 -14 57 -30z m105 -77 c13 -16
12 -17 -3 -4 -17 13 -22 21 -14 21 2 0 10 -8 17 -17z m-2280 -100 c-12 -20
-14 -14 -5 12 4 9 9 14 11 11 3 -2 0 -13 -6 -23z m-18 -38 c-3 -9 -8 -14 -10
-11 -3 3 -2 9 2 15 9 16 15 13 8 -4z m6361 -159 c-3 -15 -8 -25 -11 -23 -2 3
-1 17 3 31 3 15 8 25 11 23 2 -3 1 -17 -3 -31z m-5516 7 c-10 -2 -28 -2 -40 0
-13 2 -5 4 17 4 22 1 32 -1 23 -4z m-231 -29 c-3 -3 -12 -4 -19 -1 -8 3 -5 6
6 6 11 1 17 -2 13 -5z m-50 -10 c-3 -3 -12 -4 -19 -1 -8 3 -5 6 6 6 11 1 17
-2 13 -5z m-50 -10 c-3 -3 -12 -4 -19 -1 -8 3 -5 6 6 6 11 1 17 -2 13 -5z
m5824 -21 c-12 -20 -14 -14 -5 12 4 9 9 14 11 11 3 -2 0 -13 -6 -23z m-5924 1
c-3 -3 -12 -4 -19 -1 -8 3 -5 6 6 6 11 1 17 -2 13 -5z m5020 -76 c-3 -7 -5 -2
-5 12 0 14 2 19 5 13 2 -7 2 -19 0 -25z m-1887 12 c-8 -5 -19 -10 -25 -10 -5
0 -3 5 5 10 8 5 20 10 25 10 6 0 3 -5 -5 -10z m-2184 -55 c61 -8 128 -22 150
-30 l39 -15 -35 5 c-132 18 -353 28 -657 29 -193 0 -355 4 -359 9 -4 4 10 8
32 8 21 1 113 5 204 9 211 10 484 3 626 -15z m3329 6 c17 -4 -73 -8 -200 -9
-406 -4 -671 -29 -832 -80 -35 -11 -60 -16 -58 -11 13 20 235 72 405 94 102
14 634 18 685 6z m-5638 -27 c-3 -3 -12 -4 -19 -1 -8 3 -5 6 6 6 11 1 17 -2
13 -5z m2091 -141 c-43 -2 -113 -2 -155 0 -43 1 -8 3 77 3 85 0 120 -2 78 -3z
m3371 3 c-2 -2 -116 -5 -254 -8 -137 -2 -223 -1 -190 2 66 7 451 12 444 6z
m-3196 -13 c-13 -2 -33 -2 -45 0 -13 2 -3 4 22 4 25 0 35 -2 23 -4z m3375 0
c-15 -2 -42 -2 -60 0 -18 2 -6 4 27 4 33 0 48 -2 33 -4z m-3285 -10 c-7 -2
-19 -2 -25 0 -7 3 -2 5 12 5 14 0 19 -2 13 -5z m962 -103 l79 -85 -92 90 c-51
49 -92 94 -92 99 0 6 6 4 13 -4 7 -8 49 -53 92 -100z m-124 83 c13 -16 12 -17
-3 -4 -17 13 -22 21 -14 21 2 0 10 -8 17 -17z m739 13 c0 -2 -8 -10 -17 -17
-16 -13 -17 -12 -4 4 13 16 21 21 21 13z m-1479 -185 c59 -10 209 -63 314
-112 35 -16 68 -29 73 -29 5 0 15 -7 22 -15 16 -19 11 -19 -53 5 -62 23 -179
50 -217 49 -14 0 11 -11 56 -24 237 -70 373 -144 492 -268 42 -44 72 -88 93
-134 16 -37 41 -92 56 -120 101 -207 414 -259 591 -98 53 48 74 81 111 183 38
106 83 166 174 235 118 90 283 163 490 217 121 32 119 38 -7 15 -99 -17 -128
-7 -59 22 153 66 261 83 512 83 215 0 598 -18 619 -30 8 -3 -136 -10 -320 -13
-316 -6 -504 -18 -593 -38 -38 -8 -38 -8 10 -4 201 20 378 27 585 21 265 -7
907 -31 1230 -46 118 -5 290 -10 381 -10 l167 0 25 -42 c29 -49 18 -62 -21
-26 -31 27 -122 39 -147 18 -8 -7 -15 -8 -15 -3 0 6 -96 8 -242 6 -150 -3
-238 -1 -230 5 10 7 7 11 -12 14 -14 3 -26 1 -26 -3 0 -5 -7 -9 -16 -9 -8 0
-12 5 -9 10 4 6 -19 9 -62 8 l-68 -1 50 -7 c42 -6 35 -7 -45 -8 -52 -1 -133 1
-180 5 -78 7 -81 8 -40 14 25 3 -29 6 -120 6 -156 -1 -159 -1 -55 -7 61 -3
100 -7 87 -8 -13 -1 -21 -6 -18 -10 3 -5 -17 -5 -45 -2 -27 4 -93 5 -146 4
-61 -1 -83 1 -58 5 59 10 -701 2 -836 -9 -146 -12 -271 -34 -379 -66 -47 -14
-94 -28 -104 -31 -13 -4 -17 -2 -12 5 9 14 -3 15 -24 2 -12 -8 -12 -10 -1 -10
24 0 6 -11 -43 -25 -28 -9 -44 -10 -40 -4 7 12 -61 -22 -118 -58 -21 -13 -38
-28 -38 -34 0 -7 6 -7 18 2 15 13 16 12 3 -4 -8 -10 -20 -16 -28 -13 -15 6
-53 -14 -53 -28 0 -5 9 -1 20 9 34 31 22 11 -19 -33 -21 -22 -47 -61 -56 -86
-10 -25 -22 -46 -27 -46 -6 0 -8 -7 -4 -15 3 -8 1 -15 -3 -15 -5 0 -7 -9 -4
-20 3 -12 0 -20 -6 -20 -7 0 -9 -4 -6 -10 3 -5 1 -10 -4 -10 -6 0 -11 -8 -11
-17 -1 -26 -55 -99 -71 -95 -8 2 -11 0 -7 -4 9 -9 -10 -34 -26 -34 -6 0 -4 5
4 10 10 7 11 10 2 10 -7 0 -15 -7 -18 -15 -4 -8 -11 -15 -17 -15 -6 0 -18 -6
-26 -14 -9 -7 -45 -23 -80 -35 -71 -24 -201 -30 -269 -11 -23 6 -44 10 -49 9
-21 -4 -34 2 -27 13 5 8 0 9 -14 6 -12 -4 -25 -1 -29 4 -4 7 -1 8 8 3 8 -4 1
4 -16 19 -32 27 -51 34 -39 14 5 -9 2 -9 -9 1 -18 15 -23 26 -7 16 6 -3 10 -1
10 4 0 10 -13 15 -32 12 -17 -2 -71 81 -99 154 -17 44 -39 94 -50 111 -24 39
-24 51 -1 33 15 -13 16 -12 3 3 -7 10 -17 16 -21 13 -10 -6 -43 32 -46 53 -2
9 -8 18 -13 20 -6 2 -26 14 -44 27 -62 42 -131 79 -123 67 5 -8 2 -10 -8 -6
-9 3 -16 10 -16 16 0 5 -4 7 -9 3 -5 -3 -16 2 -24 10 -9 8 -22 15 -29 15 -7 0
-49 12 -93 26 -258 82 -451 99 -1040 89 -314 -5 -438 -3 -460 5 -22 8 -148 10
-468 4 -240 -4 -435 -9 -432 -12 2 -3 44 -5 92 -4 l88 0 -60 -12 c-34 -7 -54
-15 -45 -18 8 -4 -70 -7 -175 -8 -104 -1 -198 -3 -207 -5 -10 -2 -18 -1 -18 1
0 7 82 134 86 134 3 0 0 -9 -6 -19 -5 -11 -10 -23 -10 -27 0 -8 481 2 725 15
371 21 827 35 1160 36 428 0 360 12 -130 23 -351 8 -362 10 -115 31 144 11
672 13 741 2z m-2341 -31 c-6 -11 -13 -20 -16 -20 -2 0 0 9 6 20 6 11 13 20
16 20 2 0 0 -9 -6 -20z m6078 -127 c-10 -2 -28 -2 -40 0 -13 2 -5 4 17 4 22 1
32 -1 23 -4z m-2640 -108 c-3 -3 -9 2 -12 12 -6 14 -5 15 5 6 7 -7 10 -15 7
-18z m722 -70 c0 -2 -10 -9 -22 -15 -22 -11 -22 -10 -4 4 21 17 26 19 26 11z
m-612 -42 c-15 -2 -42 -2 -60 0 -18 2 -6 4 27 4 33 0 48 -2 33 -4z m72 -13
c18 -12 2 -12 -25 0 -13 6 -15 9 -5 9 8 0 22 -4 30 -9z m2711 -20 c10 -6 19
-15 19 -21 0 -6 -9 -4 -21 4 -11 8 -30 13 -42 10 -18 -4 -19 -3 -7 6 19 13 27
14 51 1z m-734 -221 c115 -104 135 -119 152 -110 29 16 93 13 119 -5 21 -15
25 -13 110 61 93 82 142 120 142 110 0 -3 -47 -55 -105 -116 -80 -84 -107
-119 -116 -151 -9 -35 -13 -39 -21 -25 -8 16 -11 16 -31 2 -30 -21 -69 -19
-95 5 l-22 21 -2 -28 c-1 -15 -4 -3 -7 27 -6 54 -8 57 -96 140 -50 47 -121
113 -158 148 -37 35 -67 66 -67 70 0 3 -8 14 -17 26 -36 40 86 -59 214 -175z
m-5073 106 c-35 -36 -69 -65 -75 -65 -33 0 242 -305 419 -464 368 -331 766
-572 1252 -759 323 -124 796 -231 1085 -244 130 -5 130 -6 165 -38 38 -36 90
-65 115 -65 11 0 15 11 15 40 0 52 18 52 26 0 4 -25 12 -40 21 -40 24 0 69 28
96 59 24 29 27 30 168 41 807 62 1583 377 2204 895 155 129 392 366 480 479
l69 89 -72 68 c-40 38 -68 69 -62 69 5 0 39 -28 75 -62 50 -46 69 -58 77 -50
26 26 88 8 88 -25 0 -10 -5 -11 -18 -4 -36 19 -63 -2 -171 -133 -115 -138
-316 -342 -441 -448 -281 -236 -665 -470 -992 -604 -253 -104 -494 -181 -728
-232 -161 -36 -252 -49 -468 -66 l-163 -14 -42 -41 c-23 -23 -58 -47 -79 -53
l-38 -11 0 -73 c0 -67 2 -75 30 -102 17 -17 30 -40 30 -51 0 -21 -1 -21 -25
-5 -19 13 -38 15 -75 11 -60 -7 -67 10 -20 45 28 20 30 26 30 87 0 36 -4 71
-8 77 -4 6 -28 19 -53 28 -26 10 -67 35 -92 55 -45 37 -48 38 -154 45 -203 13
-453 58 -728 132 -351 94 -771 275 -1040 447 -133 85 -384 270 -485 357 -171
148 -352 331 -457 462 -32 40 -65 78 -73 85 -22 18 -47 16 -59 -4 -10 -17 -10
-17 -11 -1 0 25 45 52 78 45 23 -5 37 3 87 48 83 75 96 69 19 -10z m1038 -2
c-17 -21 -80 -87 -141 -147 -94 -92 -111 -114 -111 -140 0 -17 -5 -38 -10 -46
-8 -13 -10 -12 -10 3 0 19 -15 23 -25 7 -4 -6 -21 -10 -39 -8 -17 1 -37 -1
-43 -5 -6 -4 -15 -2 -19 4 -5 8 -9 7 -15 -2 -4 -8 -3 -19 3 -26 7 -9 7 -13 0
-13 -16 0 -32 34 -33 67 0 21 -11 37 -42 62 -23 18 -78 72 -122 119 -87 94
-62 79 85 -51 l85 -75 28 24 c31 26 94 33 115 12 12 -12 41 10 212 166 101 92
130 109 82 49z m1008 -230 l5 -205 68 101 c38 55 73 103 78 107 13 8 -28 -74
-93 -189 l-51 -87 27 -38 c30 -44 32 -59 11 -88 -9 -14 -23 -20 -41 -18 -43 4
-84 25 -84 42 0 9 -12 25 -26 37 -16 13 -23 26 -19 36 7 19 47 39 75 39 19 0
20 8 20 179 0 179 8 306 19 296 3 -3 8 -98 11 -212z m1920 14 c0 -108 4 -176
12 -190 6 -12 31 -45 55 -73 74 -88 47 -83 -40 7 -83 87 -169 200 -226 297
-44 75 -26 58 76 -70 l88 -111 6 114 c4 63 7 139 8 169 1 40 4 51 11 40 5 -8
10 -91 10 -183z m-3580 -63 c155 -147 227 -208 379 -316 250 -177 462 -298
726 -413 72 -31 163 -72 202 -91 40 -19 94 -39 120 -44 27 -5 102 -24 169 -44
201 -58 450 -104 649 -121 39 -3 91 -8 118 -11 l47 -6 0 -75 0 -76 -102 8
c-199 13 -566 75 -708 120 -25 7 -71 21 -103 30 -32 9 -56 19 -53 24 3 4 6 28
7 54 2 25 5 46 8 45 3 0 15 0 26 1 18 2 17 4 -5 13 -43 18 -184 68 -193 68 -4
0 -7 -15 -5 -33 1 -18 -1 -37 -5 -43 -3 -6 0 -22 8 -37 l13 -26 -51 20 c-29
11 -86 33 -127 49 -159 60 -382 169 -373 183 3 6 1 7 -5 3 -14 -8 -171 80
-190 107 -8 10 -19 16 -25 14 -6 -2 -18 5 -27 15 -8 10 -25 20 -37 23 -27 5
-65 29 -58 37 3 2 -1 5 -8 5 -18 0 -77 44 -76 57 0 6 3 5 6 -2 7 -19 23 -4 23
24 0 13 6 24 13 24 8 0 9 3 1 8 -6 4 -10 15 -8 24 1 10 -3 21 -9 25 -7 4 -4 9
6 12 14 5 3 18 -50 62 -37 30 -82 65 -99 76 l-30 22 2 -61 c1 -33 7 -65 13
-71 16 -16 14 -27 -5 -27 -14 0 -15 -2 -3 -17 12 -15 10 -15 -8 1 -12 10 -21
22 -20 26 3 11 -93 94 -100 86 -3 -3 2 -8 11 -12 9 -3 16 -11 16 -16 0 -6 -27
14 -61 42 -35 32 -58 58 -55 66 3 8 -1 14 -9 14 -8 0 -23 8 -33 18 -10 10 -27
22 -37 25 -10 4 -15 10 -12 14 4 3 2 12 -5 20 -8 10 -8 17 0 25 7 7 12 17 12
23 0 5 -8 0 -18 -12 -15 -19 -19 -20 -31 -7 -11 13 -10 15 5 12 14 -2 19 3 19
22 0 14 5 28 10 33 6 4 4 11 -5 17 -20 13 -4 13 22 -1 15 -8 19 -8 14 0 -15
23 20 10 54 -21 36 -34 22 -17 -105 122 l-50 55 50 -45 c28 -25 97 -90 155
-146z m5308 89 c-40 -52 -47 -64 -26 -51 15 10 29 14 32 9 3 -5 -1 -11 -9 -15
-17 -6 -20 -26 -4 -26 5 0 7 5 4 10 -3 6 3 10 14 10 20 0 34 -14 37 -38 1 -6
-2 -10 -7 -6 -5 3 -6 11 -3 17 4 7 3 8 -2 4 -12 -12 -11 -50 1 -59 6 -5 5 -8
-2 -8 -7 0 -13 -7 -13 -15 0 -8 -4 -15 -9 -15 -5 0 -29 -19 -53 -42 -41 -40
-193 -176 -229 -205 -13 -11 -16 -11 -16 2 0 8 6 15 13 15 7 0 16 5 20 12 4 7
3 8 -4 4 -7 -4 -13 -2 -13 3 -2 16 -4 23 -18 55 -6 16 -9 36 -6 43 4 11 -1 13
-18 8 -12 -4 61 74 163 173 102 100 189 181 193 181 5 1 -15 -29 -45 -66z
m-5903 2 c14 -13 25 -35 25 -49 0 -25 -16 -44 -22 -26 -3 10 -69 16 -98 9 -29
-7 -24 46 6 70 35 27 59 27 89 -4z m6473 9 c16 -11 22 -25 22 -51 l0 -36 -23
22 c-21 18 -28 20 -52 11 -53 -20 -74 11 -35 50 24 24 57 26 88 4z m-6028
-108 c0 -3 -4 -8 -10 -11 -5 -3 -10 -1 -10 4 0 6 5 11 10 11 6 0 10 -2 10 -4z
m4385 -32 c-90 -68 -372 -210 -399 -201 -6 2 7 10 29 17 52 17 232 108 315
159 66 41 91 52 55 25z m-3754 -135 c198 -150 501 -319 757 -423 56 -22 66
-24 85 -12 12 8 36 17 54 21 26 5 47 26 104 101 63 84 89 109 89 87 0 -4 -27
-48 -60 -99 l-61 -91 17 -36 c18 -37 15 -69 -11 -102 -14 -19 -15 -19 -5 8 13
37 13 44 -2 29 -14 -14 -67 -16 -101 -3 -30 12 -40 5 -26 -20 6 -11 6 -19 0
-19 -11 0 -21 24 -21 50 0 19 -54 45 -73 33 -5 -3 -7 -2 -4 4 3 5 -31 24 -76
43 -173 69 -498 253 -644 362 -59 45 -112 108 -90 108 7 0 38 -18 68 -41z
m4319 27 c0 -11 -32 -39 -138 -121 -7 -5 -22 -18 -33 -27 -10 -10 -19 -15 -19
-10 0 4 -10 -4 -21 -18 -11 -14 -18 -18 -14 -10 4 8 -1 6 -9 -4 -9 -11 -16
-17 -16 -13 0 5 -6 3 -12 -3 -7 -5 -44 -26 -83 -46 -38 -20 -73 -42 -78 -50
-8 -14 -210 -119 -303 -157 -34 -13 -84 -30 -113 -38 -41 -10 -51 -17 -51 -34
0 -12 -7 -30 -15 -41 -13 -16 -14 -16 -9 -1 5 15 -1 17 -60 17 -54 0 -68 3
-73 18 -6 14 -8 13 -14 -8 -6 -22 -7 -20 -8 11 -1 22 7 46 18 61 l20 24 -60
93 c-32 50 -59 96 -59 101 0 26 24 2 86 -85 45 -62 75 -95 87 -95 10 0 35 -7
53 -16 34 -16 37 -16 105 11 94 37 363 171 469 235 47 28 137 88 200 134 112
82 150 100 150 72z m-2178 -130 c3 -67 4 -70 32 -77 81 -22 130 -133 92 -207
-8 -15 -27 -38 -43 -52 l-28 -25 27 30 c15 17 30 43 34 59 8 31 6 31 -49 -6
-15 -11 -51 -22 -80 -25 -47 -5 -56 -2 -85 22 -18 15 -32 34 -33 43 0 11 -4 9
-10 -7 -11 -29 -4 -58 25 -91 l21 -25 -24 20 c-34 30 -51 68 -51 121 0 74 41
123 123 148 14 4 17 17 17 74 0 113 27 111 32 -2z m975 12 c7 -34 10 -65 7
-70 -3 -4 -19 -15 -36 -24 -30 -15 -32 -15 -45 2 -21 29 -15 69 17 109 17 21
30 42 30 48 0 28 16 -11 27 -65z m-2237 32 c8 -5 11 -10 5 -10 -5 0 -17 5 -25
10 -8 5 -10 10 -5 10 6 0 17 -5 25 -10z m75 -30 c28 -10 43 -19 35 -19 -14 0
-101 36 -90 38 3 1 28 -8 55 -19z m2352 -1 c-22 -11 -41 -18 -44 -16 -6 7 48
36 67 36 8 0 -2 -9 -23 -20z m1128 2 c-6 -4 -36 -29 -68 -55 -57 -46 -68 -60
-22 -30 22 14 23 14 19 -3 -3 -11 3 -26 15 -37 11 -10 17 -24 15 -31 -3 -7 2
-15 12 -19 14 -5 15 -4 5 8 -9 11 -9 16 0 22 8 4 9 3 5 -4 -10 -16 26 -16 42
0 7 7 12 9 12 6 0 -10 -212 -161 -226 -161 -8 0 -12 -3 -9 -5 9 -9 -35 -33
-47 -26 -6 4 -8 3 -5 -3 5 -8 -28 -30 -156 -102 -21 -12 -70 -39 -109 -61 -47
-27 -78 -39 -92 -35 -16 5 -18 4 -6 -4 12 -8 9 -12 -15 -21 -22 -8 -30 -8 -37
2 -7 12 -12 4 -9 -14 0 -4 -7 -4 -16 -1 -10 4 -14 2 -10 -4 4 -6 1 -13 -6 -16
-144 -59 -241 -97 -243 -95 -1 2 -4 33 -5 70 l-3 66 -65 -24 c-142 -51 -40 6
136 77 186 74 486 240 738 408 139 93 174 115 150 92z m-4781 -60 c-3 -3 -15
6 -27 18 l-22 24 27 -19 c14 -10 24 -21 22 -23z m3293 -77 c-3 -3 -12 -4 -19
-1 -8 3 -5 6 6 6 11 1 17 -2 13 -5z m-38 -9 c-24 -23 -549 -118 -566 -102 -5
6 22 11 232 42 94 14 202 34 240 44 71 19 102 25 94 16z m-1341 -46 c62 -12
110 -24 108 -26 -7 -7 -228 37 -246 48 -12 8 -11 9 5 5 11 -3 71 -15 133 -27z
m165 -36 c-7 -2 -19 -2 -25 0 -7 3 -2 5 12 5 14 0 19 -2 13 -5z m65 -10 c-10
-2 -26 -2 -35 0 -10 3 -2 5 17 5 19 0 27 -2 18 -5z m95 -10 c-7 -2 -21 -2 -30
0 -10 3 -4 5 12 5 17 0 24 -2 18 -5z m-712 -238 c167 -48 329 -79 542 -106
l177 -22 59 56 c40 38 69 58 95 62 20 4 43 17 51 28 l15 21 20 -22 c12 -12 30
-22 41 -22 34 0 95 -37 133 -81 l35 -42 93 7 c152 12 435 63 604 110 88 24
162 42 166 40 16 -10 -6 -33 -45 -49 -71 -28 -355 -93 -502 -115 -77 -11 -172
-25 -211 -30 -84 -13 -164 -4 -138 15 15 10 13 16 -19 48 -35 34 -87 57 -134
57 -21 0 -22 -4 -25 -111 -3 -103 -1 -112 17 -122 44 -23 64 -91 27 -94 -9 -1
-37 -8 -61 -16 -42 -15 -44 -15 -67 8 -13 13 -24 30 -24 37 0 22 30 59 56 68
23 9 24 13 24 120 0 75 -4 110 -11 110 -55 0 -169 -73 -169 -107 0 -14 -13
-15 -97 -9 -164 12 -304 33 -470 71 -208 48 -317 85 -321 108 -4 22 -6 23 139
-18z m2123 -125 c-5 -5 -41 -21 -79 -35 -59 -21 -53 -27 7 -9 14 4 16 1 12
-13 -4 -10 -14 -24 -22 -30 -14 -11 -12 -13 11 -13 16 0 27 -5 27 -14 0 -8 7
-17 16 -20 9 -4 14 -9 11 -12 -10 -11 -282 -84 -402 -109 -124 -25 -347 -52
-485 -57 l-75 -3 -3 45 c-2 31 -6 40 -13 30 -6 -11 -9 -3 -9 26 l0 42 88 6
c157 12 275 27 407 52 142 28 438 99 470 114 28 12 52 13 39 0z"/>
<path d="M5230 8899 c-14 -6 -44 -29 -68 -52 -49 -48 -77 -124 -67 -181 l7
-34 -59 -7 c-339 -36 -486 -63 -728 -131 -590 -169 -1103 -464 -1523 -878
-224 -220 -451 -497 -585 -713 -204 -330 -383 -794 -467 -1207 -29 -142 -60
-391 -60 -476 l0 -40 54 0 55 0 5 43 c3 23 8 80 11 127 29 415 157 848 381
1290 138 273 298 501 541 770 281 311 611 559 998 750 387 192 755 302 1175
354 263 32 233 33 271 -9 32 -35 77 -65 97 -65 5 0 13 25 17 55 4 38 11 55 21
55 11 0 14 -15 14 -60 0 -35 4 -60 10 -60 30 0 80 32 94 59 26 49 42 53 168
41 699 -69 1354 -332 1876 -752 632 -510 1040 -1146 1236 -1933 46 -186 86
-468 86 -612 l0 -53 55 0 55 0 0 68 c-1 222 -73 608 -171 909 -193 595 -561
1151 -1029 1556 -612 529 -1245 808 -2054 906 l-140 17 3 56 c4 89 -48 168
-136 205 -37 15 -107 16 -143 2z m132 -136 c32 -31 38 -84 13 -120 -21 -29
-75 -46 -108 -34 -28 11 -57 57 -57 91 0 81 93 119 152 63z"/>
<path d="M4930 8803 c-428 -33 -937 -176 -1338 -377 -371 -186 -689 -415 -987
-711 -363 -360 -622 -734 -820 -1185 -63 -141 -165 -452 -209 -630 -42 -172
-84 -409 -87 -499 -2 -57 0 -65 18 -72 20 -7 21 -3 28 79 26 338 133 747 289
1112 186 434 460 826 833 1190 296 291 574 489 951 680 388 196 840 328 1266
370 60 6 113 13 118 16 13 8 9 34 -4 32 -7 -1 -33 -3 -58 -5z"/>
<path d="M5610 8788 c0 -17 12 -20 175 -33 300 -25 796 -168 1115 -322 415
-201 774 -455 1090 -772 586 -589 927 -1276 1049 -2116 12 -77 21 -160 21
-184 0 -35 3 -42 16 -37 9 3 18 6 20 6 10 0 2 127 -16 237 -64 390 -161 718
-315 1054 -344 757 -999 1420 -1800 1822 -189 94 -510 211 -750 271 -134 34
-376 75 -502 84 -93 7 -103 6 -103 -10z"/>
<path d="M9115 5246 c-37 -16 -83 -68 -91 -102 -24 -93 63 -196 151 -180 107
20 167 136 113 216 -46 67 -114 93 -173 66z"/>
<path d="M1340 5224 c-64 -55 -79 -132 -36 -195 26 -37 78 -69 115 -69 58 0
118 47 146 112 14 34 14 41 -1 78 -9 22 -32 53 -50 70 -29 25 -43 30 -89 30
-43 0 -59 -5 -85 -26z m115 -84 c3 -5 -3 -10 -14 -10 -11 0 -23 5 -26 10 -3 6
3 10 14 10 11 0 23 -4 26 -10z"/>
<path d="M1293 4948 c2 -7 11 -12 20 -12 9 1 14 -2 11 -7 -7 -13 22 -23 43
-14 14 5 8 10 -26 26 -51 22 -54 23 -48 7z"/>
<path d="M5210 7986 c0 -37 114 -49 151 -15 16 14 18 19 7 15 -51 -16 -87 -17
-121 -2 -29 12 -37 12 -37 2z"/>
<path d="M4215 7920 c-8 -13 15 -13 35 0 12 8 11 10 -7 10 -12 0 -25 -4 -28
-10z"/>
<path d="M4509 7621 c32 -28 109 -29 142 -1 13 10 19 19 14 20 -6 0 -16 -5
-22 -11 -12 -12 -103 -8 -138 5 -17 7 -17 5 4 -13z"/>
<path d="M5936 7629 c10 -17 70 -39 103 -39 18 0 41 10 58 26 l28 26 -27 -16
c-34 -20 -104 -21 -141 -1 -15 8 -25 9 -21 4z"/>
<path d="M7381 7157 l-34 -42 38 37 c22 21 37 39 34 42 -2 2 -19 -14 -38 -37z"/>
<path d="M7198 6863 c7 -3 16 -2 19 1 4 3 -2 6 -13 5 -11 0 -14 -3 -6 -6z"/>
<path d="M7058 6603 c7 -3 16 -2 19 1 4 3 -2 6 -13 5 -11 0 -14 -3 -6 -6z"/>
<path d="M5400 5373 l-55 -58 58 55 c31 30 57 56 57 57 0 8 -10 -1 -60 -54z"/>
<path d="M3833 7295 c35 -31 80 -32 126 -4 42 26 35 34 -12 14 -46 -19 -78
-19 -103 0 -32 24 -41 16 -11 -10z"/>
<path d="M6633 7294 c22 -23 36 -29 70 -29 25 0 55 8 71 18 36 24 27 32 -19
17 -38 -12 -109 -6 -135 13 -8 6 -3 -2 13 -19z"/>
<path d="M3123 7175 c37 -33 104 -35 138 -4 l24 21 -25 -7 c-66 -16 -99 -17
-132 -1 l-33 16 28 -25z"/>
<path d="M4985 6901 c-6 -5 -26 -11 -45 -14 l-35 -4 36 -1 c19 -1 44 5 55 13
10 8 14 15 9 15 -6 0 -15 -4 -20 -9z"/>
<path d="M5710 6904 c-14 -8 -39 -13 -57 -11 -17 1 -29 -1 -27 -5 10 -15 72
-8 95 12 28 23 24 24 -11 4z"/>
<path d="M5971 6153 c0 -6 -4 -20 -7 -30 -5 -14 -4 -15 5 -7 7 7 11 20 8 30
-3 11 -5 14 -6 7z"/>
<path d="M3716 6345 c-23 -17 -118 -20 -147 -5 -32 18 -21 1 14 -20 17 -11 45
-20 60 -20 34 0 82 24 90 45 8 18 7 18 -17 0z"/>
<path d="M4211 6033 c-39 -27 -92 -30 -135 -8 -40 21 -43 13 -6 -19 49 -40
115 -31 164 23 27 30 17 32 -23 4z"/>
<path d="M2523 5880 c-36 -29 -85 -33 -142 -11 -49 18 -50 18 -40 0 13 -25 61
-49 99 -49 39 0 86 24 101 51 14 28 9 31 -18 9z"/>
<path d="M3452 5623 c13 -17 39 -16 62 0 15 11 11 13 -28 12 -34 0 -42 -3 -34
-12z"/>
<path d="M8050 5878 c0 -5 12 -20 26 -35 23 -22 32 -25 80 -21 39 3 61 11 79
28 34 32 32 44 -4 26 -51 -27 -102 -29 -143 -8 -21 11 -38 16 -38 10z"/>
<path d="M3650 4359 c-119 -11 -450 -68 -480 -83 -14 -6 -26 -22 -28 -34 -4
-29 15 -29 171 3 298 60 557 71 778 34 153 -25 386 -101 534 -173 132 -65 343
-203 379 -248 26 -32 27 -32 41 -14 8 11 15 27 15 35 0 19 -175 150 -285 214
-256 148 -555 244 -831 267 -133 11 -172 11 -294 -1z"/>
<path d="M3780 3950 c80 -5 163 -5 185 -1 24 5 -35 8 -145 8 l-185 0 145 -7z"/>
<path d="M4010 3935 c0 -13 9 -15 53 -9 58 7 74 14 34 14 -14 0 -33 3 -43 7
-12 4 -15 3 -10 -5 4 -7 2 -12 -3 -12 -6 0 -11 5 -11 10 0 6 -4 10 -10 10 -5
0 -10 -7 -10 -15z"/>
<path d="M4170 3909 c0 -5 5 -7 10 -4 6 3 10 8 10 11 0 2 -4 4 -10 4 -5 0 -10
-5 -10 -11z"/>
<path d="M4240 3891 c0 -6 5 -13 12 -17 7 -4 8 -3 4 5 -6 8 0 10 21 6 23 -4
24 -4 8 4 -26 13 -45 13 -45 2z"/>
<path d="M6610 4359 c-121 -11 -225 -34 -385 -86 -250 -81 -387 -150 -576
-291 -109 -80 -122 -93 -113 -116 11 -28 44 -18 102 33 67 57 201 146 289 190
163 81 420 167 586 195 205 35 569 12 842 -54 58 -14 85 -12 92 6 11 30 -24
44 -182 73 -302 56 -463 68 -655 50z"/>
<path d="M5619 4323 c-13 -16 -12 -17 4 -4 16 13 21 21 13 21 -2 0 -10 -8 -17
-17z"/>
<path d="M6396 3907 c3 -10 9 -15 12 -12 3 3 0 11 -7 18 -10 9 -11 8 -5 -6z"/>
<path d="M5575 3680 c-10 -11 -22 -17 -28 -13 -6 4 -7 1 -2 -6 5 -9 13 -7 31
10 13 12 24 24 24 26 0 7 -8 2 -25 -17z"/>
<path d="M5519 3573 c-13 -16 -12 -17 4 -4 9 7 17 15 17 17 0 8 -8 3 -21 -13z"/>
<path d="M5495 3541 c-3 -5 -2 -12 3 -15 5 -3 9 1 9 9 0 17 -3 19 -12 6z"/>
<path d="M1581 4075 c0 -5 8 -37 19 -70 11 -33 17 -44 13 -25 -6 38 -31 111
-32 95z"/>
<path d="M4018 3303 c6 -2 18 -2 25 0 6 3 1 5 -13 5 -14 0 -19 -2 -12 -5z"/>
<path d="M8318 3223 c7 -3 16 -2 19 1 4 3 -2 6 -13 5 -11 0 -14 -3 -6 -6z"/>
<path d="M1750 3212 c0 -4 21 -6 48 -4 82 5 89 9 20 11 -38 0 -68 -2 -68 -7z"/>
<path d="M1913 3213 c9 -2 25 -2 35 0 9 3 1 5 -18 5 -19 0 -27 -2 -17 -5z"/>
<path d="M5777 2933 c-20 -23 -51 -102 -43 -110 3 -4 6 1 6 9 0 9 15 39 34 67
34 49 35 69 3 34z"/>
<path d="M4857 2835 c9 -19 18 -33 21 -31 4 5 -26 66 -33 66 -3 0 3 -16 12
-35z"/>
<path d="M4890 2759 c0 -23 49 -119 61 -119 7 0 7 6 -2 16 -8 10 -24 40 -36
68 -12 28 -22 44 -23 35z"/>
<path d="M2583 2475 c0 -8 3 -13 5 -10 3 3 17 -5 30 -17 26 -23 21 -9 -7 24
-19 22 -28 23 -28 3z"/>
<path d="M2830 2416 c0 -2 8 -10 18 -17 15 -13 16 -12 3 4 -13 16 -21 21 -21
13z"/>
<path d="M2689 2367 c26 -28 31 -32 31 -19 0 4 -13 16 -28 26 l-27 19 24 -26z"/>
<path d="M3937 1739 c7 -7 15 -10 18 -7 3 3 -2 9 -12 12 -14 6 -15 5 -6 -5z"/>
<path d="M4248 1633 c7 -3 16 -2 19 1 4 3 -2 6 -13 5 -11 0 -14 -3 -6 -6z"/>
<path d="M5093 1425 c0 -27 2 -38 4 -22 2 15 2 37 0 50 -2 12 -4 0 -4 -28z"/>
<path d="M7909 2543 c-13 -16 -12 -17 4 -4 9 7 17 15 17 17 0 8 -8 3 -21 -13z"/>
<path d="M6308 1623 c7 -3 16 -2 19 1 4 3 -2 6 -13 5 -11 0 -14 -3 -6 -6z"/>
</g>
</svg>
